<svg width="1114" height="96" viewBox="0 0 1114 96" fill="none" xmlns="http://www.w3.org/2000/svg">
<g clip-path="url(#clip0_0_875)">
<path d="M12.4 41.36C10.16 41.36 8.22667 40.92 6.6 40.04C5 39.1333 3.78667 37.9733 2.96 36.56C2.13333 35.1467 1.72 33.6533 1.72 32.08V31.84H7.8V32.08C7.8 32.7467 7.96 33.4267 8.28 34.12C8.62667 34.7867 9.14667 35.3467 9.84 35.8C10.56 36.2533 11.44 36.48 12.48 36.48C13.7867 36.48 14.84 36.1467 15.64 35.48C16.4667 34.8133 16.88 33.92 16.88 32.8C16.88 31.84 16.5333 31.08 15.84 30.52C15.1733 29.9333 14.3467 29.5467 13.36 29.36L9.96 28.64C8.2 28.2933 6.50667 27.5467 4.88 26.4C3.25333 25.2267 2.44 23.32 2.44 20.68C2.44 18.9733 2.85333 17.5067 3.68 16.28C4.50667 15.0267 5.65333 14.08 7.12 13.44C8.58667 12.7733 10.2533 12.44 12.12 12.44C14.2533 12.44 16.08 12.8533 17.6 13.68C19.1467 14.5067 20.3067 15.5733 21.08 16.88C21.88 18.1867 22.28 19.5733 22.28 21.04V21.2H16.2V21.08C16.2 20.12 15.8533 19.2267 15.16 18.4C14.4933 17.5467 13.4133 17.12 11.92 17.12C10.6933 17.12 9.73333 17.4533 9.04 18.12C8.34667 18.76 8 19.5867 8 20.6C8 21.56 8.34667 22.32 9.04 22.88C9.76 23.44 10.64 23.8267 11.68 24.04L15.04 24.76C17.0933 25.2133 18.88 26.0533 20.4 27.28C21.92 28.5067 22.68 30.3067 22.68 32.68C22.68 34.3867 22.24 35.9067 21.36 37.24C20.48 38.5467 19.2533 39.56 17.68 40.28C16.1333 41 14.3733 41.36 12.4 41.36ZM26.3463 19.88H31.8663V41H26.3463V19.88ZM29.0663 16.24C28.1863 16.24 27.453 15.9467 26.8663 15.36C26.2797 14.7467 25.9863 14.0133 25.9863 13.16C25.9863 12.28 26.2797 11.5467 26.8663 10.96C27.453 10.3733 28.1863 10.08 29.0663 10.08C29.9463 10.08 30.6797 10.3867 31.2663 11C31.853 11.5867 32.1463 12.3067 32.1463 13.16C32.1463 14.0133 31.853 14.7467 31.2663 15.36C30.6797 15.9467 29.9463 16.24 29.0663 16.24ZM36.6327 19.88H42.1927V23.28H42.4727C42.766 22.5333 43.3793 21.6933 44.3127 20.76C45.246 19.8267 46.606 19.36 48.3927 19.36C49.7793 19.36 50.9393 19.68 51.8727 20.32C52.806 20.96 53.486 21.64 53.9127 22.36C54.366 23.0533 54.6327 23.56 54.7127 23.88H54.9927C55.3127 23.0267 55.9793 22.0667 56.9927 21C58.006 19.9067 59.566 19.36 61.6727 19.36C63.5127 19.36 64.966 19.84 66.0327 20.8C67.126 21.7333 67.886 22.8667 68.3127 24.2C68.766 25.5067 68.9927 26.7733 68.9927 28V41H63.4327V28.56C63.4327 27.12 63.0593 26.0267 62.3127 25.28C61.566 24.5333 60.6593 24.16 59.5927 24.16C58.4993 24.16 57.5527 24.5467 56.7527 25.32C55.9793 26.0933 55.5927 27.1733 55.5927 28.56V41H50.0327V28.56C50.0327 27.12 49.6593 26.0267 48.9127 25.28C48.166 24.5333 47.2593 24.16 46.1927 24.16C45.0993 24.16 44.1527 24.5467 43.3527 25.32C42.5793 26.0933 42.1927 27.1733 42.1927 28.56V41H36.6327V19.88ZM85.3087 41.32C83.522 41.32 82.122 40.9067 81.1087 40.08C80.0954 39.2533 79.3487 38.3467 78.8687 37.36H78.5487V49.32H72.9887V19.88H78.5487V23.16H78.8687C79.2954 22.2533 80.0154 21.4 81.0287 20.6C82.042 19.7733 83.4554 19.36 85.2687 19.36C87.962 19.36 90.0287 20.36 91.4687 22.36C92.9354 24.36 93.6687 27.04 93.6687 30.4C93.6687 33.68 92.9354 36.32 91.4687 38.32C90.0287 40.32 87.9754 41.32 85.3087 41.32ZM83.3087 36.92C84.9087 36.92 86.0954 36.28 86.8687 35C87.6687 33.72 88.0687 32.1733 88.0687 30.36C88.0687 28.6 87.6687 27.0933 86.8687 25.84C86.0954 24.56 84.9087 23.92 83.3087 23.92C81.7354 23.92 80.5487 24.56 79.7487 25.84C78.9487 27.12 78.5487 28.64 78.5487 30.4C78.5487 32.1867 78.9487 33.72 79.7487 35C80.5487 36.28 81.7354 36.92 83.3087 36.92ZM103.839 41.16C101.866 41.16 100.399 40.8667 99.4391 40.28C98.5058 39.6667 97.9191 38.92 97.6791 38.04C97.4658 37.1333 97.3591 35.9867 97.3591 34.6V11H102.879V33.48C102.879 34.44 102.919 35.16 102.999 35.64C103.106 36.0933 103.372 36.4667 103.799 36.76C104.252 37.0267 104.959 37.16 105.919 37.16C106.239 37.16 106.612 37.1333 107.039 37.08V40.92C105.679 41.08 104.612 41.16 103.839 41.16ZM110.638 19.88H116.158V41H110.638V19.88ZM113.358 16.24C112.478 16.24 111.744 15.9467 111.158 15.36C110.571 14.7467 110.278 14.0133 110.278 13.16C110.278 12.28 110.571 11.5467 111.158 10.96C111.744 10.3733 112.478 10.08 113.358 10.08C114.238 10.08 114.971 10.3867 115.558 11C116.144 11.5867 116.438 12.3067 116.438 13.16C116.438 14.0133 116.144 14.7467 115.558 15.36C114.971 15.9467 114.238 16.24 113.358 16.24ZM130.771 15.32C129.944 15.32 129.331 15.4933 128.931 15.84C128.557 16.16 128.317 16.56 128.211 17.04C128.131 17.4933 128.091 18.1067 128.091 18.88V19.88H132.811V24.2H128.091V41H122.571V24.2H119.891V19.88H122.571V17.76C122.571 16.1333 123.011 14.68 123.891 13.4C124.771 12.0933 126.557 11.44 129.251 11.44C129.917 11.44 130.611 11.48 131.331 11.56C132.077 11.64 132.571 11.7333 132.811 11.84V15.48C132.171 15.3733 131.491 15.32 130.771 15.32ZM145.523 44C145.15 44.9867 144.75 45.8533 144.323 46.6C143.896 47.3733 143.136 48.12 142.043 48.84C140.976 49.56 139.563 49.92 137.803 49.92C137.056 49.92 136.416 49.8533 135.883 49.72C135.35 49.6133 135.016 49.5467 134.883 49.52V45.64C135.31 45.7467 135.883 45.8 136.603 45.8C137.483 45.8 138.19 45.6533 138.723 45.36C139.256 45.0667 139.683 44.68 140.003 44.2C140.323 43.72 140.643 43.0533 140.963 42.2L141.643 40.52L134.043 19.88H139.643L144.203 34.4H144.443L149.243 19.88H154.843L145.523 44ZM165.07 11.28H170.67V23.12H170.95C171.43 22.08 172.204 21.2 173.27 20.48C174.337 19.7333 175.63 19.36 177.15 19.36C179.897 19.36 181.83 20.24 182.95 22C184.097 23.76 184.67 25.76 184.67 28V41H179.15V28.92C179.15 27.3733 178.777 26.16 178.03 25.28C177.31 24.4 176.27 23.96 174.91 23.96C173.577 23.96 172.537 24.4133 171.79 25.32C171.044 26.2267 170.67 27.4267 170.67 28.92V41H165.07V11.28ZM197.897 41.32C195.684 41.32 193.817 40.8267 192.297 39.84C190.804 38.8267 189.684 37.4933 188.937 35.84C188.191 34.1867 187.817 32.3733 187.817 30.4C187.817 28.4267 188.177 26.6133 188.897 24.96C189.644 23.28 190.777 21.9333 192.297 20.92C193.817 19.9067 195.684 19.4 197.897 19.4C200.111 19.4 201.977 19.9067 203.497 20.92C205.017 21.9067 206.151 23.2267 206.897 24.88C207.644 26.5333 208.017 28.3467 208.017 30.32C208.017 32.2933 207.644 34.12 206.897 35.8C206.151 37.4533 205.017 38.7867 203.497 39.8C201.977 40.8133 200.111 41.32 197.897 41.32ZM197.897 36.84C199.444 36.84 200.604 36.2267 201.377 35C202.177 33.7467 202.577 32.1867 202.577 30.32C202.577 28.4533 202.177 26.92 201.377 25.72C200.604 24.4933 199.444 23.88 197.897 23.88C196.351 23.88 195.191 24.4933 194.417 25.72C193.644 26.92 193.257 28.4533 193.257 30.32C193.257 32.1867 193.644 33.7467 194.417 35C195.217 36.2267 196.377 36.84 197.897 36.84ZM209.466 19.88H214.626L218.226 35H218.426L222.706 19.88H227.546L231.946 35H232.146L235.626 19.88H240.786L235.386 41H228.706L225.306 28.28H225.026L221.666 41H214.986L209.466 19.88ZM261.706 44C261.333 44.9867 260.933 45.8533 260.506 46.6C260.079 47.3733 259.319 48.12 258.226 48.84C257.159 49.56 255.746 49.92 253.986 49.92C253.239 49.92 252.599 49.8533 252.066 49.72C251.533 49.6133 251.199 49.5467 251.066 49.52V45.64C251.493 45.7467 252.066 45.8 252.786 45.8C253.666 45.8 254.373 45.6533 254.906 45.36C255.439 45.0667 255.866 44.68 256.186 44.2C256.506 43.72 256.826 43.0533 257.146 42.2L257.826 40.52L250.226 19.88H255.826L260.386 34.4H260.626L265.426 19.88H271.026L261.706 44ZM282.189 41.32C279.975 41.32 278.109 40.8267 276.589 39.84C275.095 38.8267 273.975 37.4933 273.229 35.84C272.482 34.1867 272.109 32.3733 272.109 30.4C272.109 28.4267 272.469 26.6133 273.189 24.96C273.935 23.28 275.069 21.9333 276.589 20.92C278.109 19.9067 279.975 19.4 282.189 19.4C284.402 19.4 286.269 19.9067 287.789 20.92C289.309 21.9067 290.442 23.2267 291.189 24.88C291.935 26.5333 292.309 28.3467 292.309 30.32C292.309 32.2933 291.935 34.12 291.189 35.8C290.442 37.4533 289.309 38.7867 287.789 39.8C286.269 40.8133 284.402 41.32 282.189 41.32ZM282.189 36.84C283.735 36.84 284.895 36.2267 285.669 35C286.469 33.7467 286.869 32.1867 286.869 30.32C286.869 28.4533 286.469 26.92 285.669 25.72C284.895 24.4933 283.735 23.88 282.189 23.88C280.642 23.88 279.482 24.4933 278.709 25.72C277.935 26.92 277.549 28.4533 277.549 30.32C277.549 32.1867 277.935 33.7467 278.709 35C279.509 36.2267 280.669 36.84 282.189 36.84ZM314.711 41H309.151V37.64H308.871C308.391 38.68 307.631 39.5733 306.591 40.32C305.578 41.04 304.324 41.4 302.831 41.4C300.138 41.4 298.244 40.52 297.151 38.76C296.058 36.9733 295.511 34.9733 295.511 32.76V19.88H301.031V31.84C301.031 33.36 301.378 34.5733 302.071 35.48C302.764 36.36 303.751 36.8 305.031 36.8C306.418 36.8 307.444 36.3333 308.111 35.4C308.804 34.4667 309.151 33.28 309.151 31.84V19.88H314.711V41ZM318.59 19.88H324.07V23.24H324.35C324.696 22.3067 325.336 21.52 326.27 20.88C327.203 20.2133 328.403 19.88 329.87 19.88C330.43 19.88 330.91 19.9333 331.31 20.04L331.07 25.12C330.403 24.9333 329.696 24.84 328.95 24.84C327.296 24.84 326.07 25.28 325.27 26.16C324.47 27.0133 324.07 28.44 324.07 30.44V41H318.59V19.88ZM349.608 24.2V33.6C349.608 34.5333 349.648 35.2267 349.728 35.68C349.835 36.1333 350.102 36.4933 350.528 36.76C350.955 37.0267 351.648 37.16 352.608 37.16C353.168 37.16 353.742 37.1067 354.328 37V40.84C354.035 40.8933 353.502 40.96 352.728 41.04C351.982 41.12 351.248 41.16 350.528 41.16C348.582 41.16 347.128 40.88 346.168 40.32C345.235 39.7333 344.648 39.0133 344.408 38.16C344.168 37.28 344.048 36.16 344.048 34.8V24.2H340.528V19.88H344.088V13H349.608V19.88H354.328V24.2H349.608ZM367.25 41.32C365.037 41.32 363.17 40.8133 361.65 39.8C360.13 38.76 358.997 37.4133 358.25 35.76C357.53 34.08 357.17 32.28 357.17 30.36C357.17 28.44 357.53 26.6533 358.25 25C358.997 23.32 360.13 21.96 361.65 20.92C363.17 19.88 365.05 19.36 367.29 19.36C370.25 19.36 372.597 20.3067 374.33 22.2C376.09 24.0933 376.97 26.8267 376.97 30.4V31.92H362.49V32.24C362.49 33.52 362.93 34.6267 363.81 35.56C364.69 36.4667 365.797 36.92 367.13 36.92C368.17 36.92 369.05 36.68 369.77 36.2C370.49 35.72 371.01 35.0667 371.33 34.24H376.77C376.21 36.32 375.117 38.0267 373.49 39.36C371.863 40.6667 369.783 41.32 367.25 41.32ZM371.65 28.32C371.597 26.64 371.17 25.4 370.37 24.6C369.57 23.8 368.517 23.4 367.21 23.4C365.823 23.4 364.73 23.84 363.93 24.72C363.13 25.6 362.703 26.8 362.65 28.32H371.65ZM387.623 41.32C385.009 41.32 382.969 40.32 381.503 38.32C380.036 36.32 379.303 33.68 379.303 30.4C379.303 27.0667 380.036 24.4 381.503 22.4C382.996 20.3733 385.076 19.36 387.743 19.36C389.529 19.36 390.929 19.7733 391.943 20.6C392.956 21.4 393.676 22.2533 394.103 23.16H394.423V19.88H399.983V41H394.423V37.36H394.103C393.623 38.3467 392.876 39.2533 391.863 40.08C390.849 40.9067 389.436 41.32 387.623 41.32ZM389.663 36.84C391.236 36.84 392.423 36.2 393.223 34.92C394.023 33.64 394.423 32.1067 394.423 30.32C394.423 28.5333 394.023 27.0133 393.223 25.76C392.449 24.5067 391.263 23.88 389.663 23.88C388.063 23.88 386.876 24.5067 386.103 25.76C385.329 27.0133 384.943 28.5333 384.943 30.32C384.943 32.1333 385.329 33.68 386.103 34.96C386.876 36.2133 388.063 36.84 389.663 36.84ZM404.116 19.88H409.676V23.28H409.956C410.249 22.5333 410.863 21.6933 411.796 20.76C412.729 19.8267 414.089 19.36 415.876 19.36C417.263 19.36 418.423 19.68 419.356 20.32C420.289 20.96 420.969 21.64 421.396 22.36C421.849 23.0533 422.116 23.56 422.196 23.88H422.476C422.796 23.0267 423.463 22.0667 424.476 21C425.489 19.9067 427.049 19.36 429.156 19.36C430.996 19.36 432.449 19.84 433.516 20.8C434.609 21.7333 435.369 22.8667 435.796 24.2C436.249 25.5067 436.476 26.7733 436.476 28V41H430.916V28.56C430.916 27.12 430.543 26.0267 429.796 25.28C429.049 24.5333 428.143 24.16 427.076 24.16C425.983 24.16 425.036 24.5467 424.236 25.32C423.463 26.0933 423.076 27.1733 423.076 28.56V41H417.516V28.56C417.516 27.12 417.143 26.0267 416.396 25.28C415.649 24.5333 414.743 24.16 413.676 24.16C412.583 24.16 411.636 24.5467 410.836 25.32C410.063 26.0933 409.676 27.1733 409.676 28.56V41H404.116V19.88ZM0.8 63.88H5.96L9.56 79H9.76L14.04 63.88H18.88L23.28 79H23.48L26.96 63.88H32.12L26.72 85H20.04L16.64 72.28H16.36L13 85H6.32L0.8 63.88ZM43.4276 85.32C41.2143 85.32 39.3476 84.8267 37.8276 83.84C36.3343 82.8267 35.2143 81.4933 34.4676 79.84C33.7209 78.1867 33.3476 76.3733 33.3476 74.4C33.3476 72.4267 33.7076 70.6133 34.4276 68.96C35.1743 67.28 36.3076 65.9333 37.8276 64.92C39.3476 63.9067 41.2143 63.4 43.4276 63.4C45.6409 63.4 47.5076 63.9067 49.0276 64.92C50.5476 65.9067 51.6809 67.2267 52.4276 68.88C53.1743 70.5333 53.5476 72.3467 53.5476 74.32C53.5476 76.2933 53.1743 78.12 52.4276 79.8C51.6809 81.4533 50.5476 82.7867 49.0276 83.8C47.5076 84.8133 45.6409 85.32 43.4276 85.32ZM43.4276 80.84C44.9743 80.84 46.1343 80.2267 46.9076 79C47.7076 77.7467 48.1076 76.1867 48.1076 74.32C48.1076 72.4533 47.7076 70.92 46.9076 69.72C46.1343 68.4933 44.9743 67.88 43.4276 67.88C41.8809 67.88 40.7209 68.4933 39.9476 69.72C39.1743 70.92 38.7876 72.4533 38.7876 74.32C38.7876 76.1867 39.1743 77.7467 39.9476 79C40.7476 80.2267 41.9076 80.84 43.4276 80.84ZM56.9099 63.88H62.3899V67.24H62.6699C63.0165 66.3067 63.6565 65.52 64.5899 64.88C65.5232 64.2133 66.7232 63.88 68.1899 63.88C68.7499 63.88 69.2299 63.9333 69.6299 64.04L69.3899 69.12C68.7232 68.9333 68.0165 68.84 67.2699 68.84C65.6165 68.84 64.3899 69.28 63.5899 70.16C62.7899 71.0133 62.3899 72.44 62.3899 74.44V85H56.9099V63.88ZM72.4484 55.28H78.0084V71.8H78.2084L84.6084 63.88H90.7684L83.1284 73.52L90.9684 85H84.8084L78.2484 74.84H78.0084V85H72.4484V55.28ZM100.388 85.32C98.6012 85.32 97.0545 84.9867 95.7479 84.32C94.4679 83.6533 93.4945 82.7867 92.8279 81.72C92.1612 80.6267 91.8279 79.48 91.8279 78.28V78.04H97.2279V78.28C97.2279 79 97.5079 79.64 98.0679 80.2C98.6279 80.76 99.4412 81.04 100.508 81.04C101.388 81.04 102.095 80.84 102.628 80.44C103.188 80.0133 103.468 79.44 103.468 78.72C103.468 78.08 103.228 77.5733 102.748 77.2C102.268 76.8267 101.668 76.5867 100.948 76.48L98.5479 76C96.9745 75.7067 95.5479 75.08 94.2679 74.12C92.9879 73.16 92.3479 71.7067 92.3479 69.76C92.3479 67.76 93.0812 66.2 94.5479 65.08C96.0145 63.9333 97.8945 63.36 100.188 63.36C101.868 63.36 103.321 63.6667 104.548 64.28C105.775 64.8933 106.708 65.7067 107.348 66.72C107.988 67.7067 108.308 68.7733 108.308 69.92V70.08H102.908V69.96C102.908 69.32 102.668 68.7333 102.188 68.2C101.708 67.64 100.975 67.36 99.9879 67.36C99.1612 67.36 98.4945 67.5733 97.9879 68C97.4812 68.4267 97.2279 68.9867 97.2279 69.68C97.2279 70.32 97.4812 70.8267 97.9879 71.2C98.5212 71.5733 99.1745 71.8267 99.9479 71.96L102.588 72.48C104.295 72.8533 105.735 73.5333 106.908 74.52C108.081 75.48 108.668 76.8533 108.668 78.64C108.668 79.9733 108.308 81.1467 107.588 82.16C106.868 83.1733 105.868 83.96 104.588 84.52C103.335 85.0533 101.935 85.32 100.388 85.32ZM128.024 68.2V77.6C128.024 78.5333 128.064 79.2267 128.144 79.68C128.25 80.1333 128.517 80.4933 128.944 80.76C129.37 81.0267 130.064 81.16 131.024 81.16C131.584 81.16 132.157 81.1067 132.744 81V84.84C132.45 84.8933 131.917 84.96 131.144 85.04C130.397 85.12 129.664 85.16 128.944 85.16C126.997 85.16 125.544 84.88 124.584 84.32C123.65 83.7333 123.064 83.0133 122.824 82.16C122.584 81.28 122.464 80.16 122.464 78.8V68.2H118.944V63.88H122.504V57H128.024V63.88H132.744V68.2H128.024ZM145.665 85.32C143.452 85.32 141.585 84.8267 140.065 83.84C138.572 82.8267 137.452 81.4933 136.705 79.84C135.959 78.1867 135.585 76.3733 135.585 74.4C135.585 72.4267 135.945 70.6133 136.665 68.96C137.412 67.28 138.545 65.9333 140.065 64.92C141.585 63.9067 143.452 63.4 145.665 63.4C147.879 63.4 149.745 63.9067 151.265 64.92C152.785 65.9067 153.919 67.2267 154.665 68.88C155.412 70.5333 155.785 72.3467 155.785 74.32C155.785 76.2933 155.412 78.12 154.665 79.8C153.919 81.4533 152.785 82.7867 151.265 83.8C149.745 84.8133 147.879 85.32 145.665 85.32ZM145.665 80.84C147.212 80.84 148.372 80.2267 149.145 79C149.945 77.7467 150.345 76.1867 150.345 74.32C150.345 72.4533 149.945 70.92 149.145 69.72C148.372 68.4933 147.212 67.88 145.665 67.88C144.119 67.88 142.959 68.4933 142.185 69.72C141.412 70.92 141.025 72.4533 141.025 74.32C141.025 76.1867 141.412 77.7467 142.185 79C142.985 80.2267 144.145 80.84 145.665 80.84ZM166.668 85.32C164.001 85.32 161.934 84.32 160.468 82.32C159.028 80.32 158.308 77.68 158.308 74.4C158.308 71.04 159.028 68.36 160.468 66.36C161.934 64.36 164.014 63.36 166.708 63.36C168.521 63.36 169.934 63.7733 170.948 64.6C171.961 65.4 172.681 66.2533 173.108 67.16H173.428V54.96H178.988V85H173.428V81.36H173.108C172.628 82.3467 171.881 83.2533 170.868 84.08C169.854 84.9067 168.454 85.32 166.668 85.32ZM168.668 80.92C170.241 80.92 171.428 80.28 172.228 79C173.028 77.72 173.428 76.1867 173.428 74.4C173.428 72.64 173.028 71.12 172.228 69.84C171.428 68.56 170.241 67.92 168.668 67.92C167.068 67.92 165.868 68.56 165.068 69.84C164.294 71.0933 163.908 72.6 163.908 74.36C163.908 76.1733 164.294 77.72 165.068 79C165.868 80.28 167.068 80.92 168.668 80.92ZM190.324 85.32C187.71 85.32 185.67 84.32 184.204 82.32C182.737 80.32 182.004 77.68 182.004 74.4C182.004 71.0667 182.737 68.4 184.204 66.4C185.697 64.3733 187.777 63.36 190.444 63.36C192.23 63.36 193.63 63.7733 194.644 64.6C195.657 65.4 196.377 66.2533 196.804 67.16H197.124V63.88H202.684V85H197.124V81.36H196.804C196.324 82.3467 195.577 83.2533 194.564 84.08C193.55 84.9067 192.137 85.32 190.324 85.32ZM192.364 80.84C193.937 80.84 195.124 80.2 195.924 78.92C196.724 77.64 197.124 76.1067 197.124 74.32C197.124 72.5333 196.724 71.0133 195.924 69.76C195.15 68.5067 193.964 67.88 192.364 67.88C190.764 67.88 189.577 68.5067 188.804 69.76C188.03 71.0133 187.644 72.5333 187.644 74.32C187.644 76.1333 188.03 77.68 188.804 78.96C189.577 80.2133 190.764 80.84 192.364 80.84ZM216.583 88C216.21 88.9867 215.81 89.8533 215.383 90.6C214.957 91.3733 214.197 92.12 213.103 92.84C212.037 93.56 210.623 93.92 208.863 93.92C208.117 93.92 207.477 93.8533 206.943 93.72C206.41 93.6133 206.077 93.5467 205.943 93.52V89.64C206.37 89.7467 206.943 89.8 207.663 89.8C208.543 89.8 209.25 89.6533 209.783 89.36C210.317 89.0667 210.743 88.68 211.063 88.2C211.383 87.72 211.703 87.0533 212.023 86.2L212.703 84.52L205.103 63.88H210.703L215.263 78.4H215.503L220.303 63.88H225.903L216.583 88ZM231.746 85.32C230.866 85.32 230.119 85.0267 229.506 84.44C228.919 83.8267 228.626 83.08 228.626 82.2C228.626 81.32 228.919 80.5733 229.506 79.96C230.119 79.3467 230.866 79.04 231.746 79.04C232.653 79.04 233.399 79.3467 233.986 79.96C234.599 80.5733 234.906 81.32 234.906 82.2C234.906 83.0533 234.599 83.7867 233.986 84.4C233.399 85.0133 232.653 85.32 231.746 85.32Z" fill="white"/>
<g filter="url(#filter0_d_0_875)">
<rect x="977" y="26" width="137" height="44" rx="22" fill="white"/>
</g>
<mask id="mask0_0_875" style="mask-type:luminance" maskUnits="userSpaceOnUse" x="977" y="26" width="137" height="44">
<rect x="977" y="26" width="137" height="44" rx="22" fill="white"/>
</mask>
<g mask="url(#mask0_0_875)">
</g>
<path d="M1013.51 54.104C1012.65 54.104 1011.93 53.883 1011.33 53.441C1010.74 52.999 1010.3 52.4227 1010 51.712C1009.72 51.0013 1009.57 50.2473 1009.57 49.45C1009.57 48.6267 1009.72 47.8553 1010.03 47.136C1010.33 46.4167 1010.79 45.836 1011.41 45.394C1012.03 44.9433 1012.79 44.718 1013.69 44.718C1014.72 44.718 1015.57 45.004 1016.22 45.576C1016.87 46.148 1017.33 46.8847 1017.59 47.786H1015.7C1015.56 47.318 1015.32 46.954 1014.99 46.694C1014.66 46.434 1014.23 46.304 1013.71 46.304C1012.96 46.304 1012.39 46.5943 1011.99 47.175C1011.59 47.747 1011.39 48.5183 1011.39 49.489C1011.39 50.4943 1011.6 51.2743 1012.02 51.829C1012.44 52.3837 1013.03 52.661 1013.78 52.661C1014.44 52.661 1014.95 52.4617 1015.31 52.063C1015.66 51.6557 1015.85 51.166 1015.86 50.594V50.386H1013.95V49.086H1017.62V54H1016.28V52.648H1016.18C1016.04 52.8733 1015.9 53.0727 1015.76 53.246C1015.63 53.4193 1015.37 53.6057 1014.98 53.805C1014.6 54.0043 1014.11 54.104 1013.51 54.104ZM1022.11 54.104C1021.4 54.104 1020.79 53.9393 1020.29 53.61C1019.8 53.272 1019.43 52.8343 1019.19 52.297C1018.96 51.751 1018.84 51.166 1018.84 50.542C1018.84 49.918 1018.96 49.3373 1019.19 48.8C1019.43 48.254 1019.8 47.812 1020.29 47.474C1020.79 47.136 1021.4 46.967 1022.13 46.967C1023.09 46.967 1023.85 47.2747 1024.42 47.89C1024.99 48.5053 1025.27 49.3937 1025.27 50.555V51.049H1020.57V51.153C1020.57 51.569 1020.71 51.9287 1021 52.232C1021.28 52.5267 1021.64 52.674 1022.08 52.674C1022.41 52.674 1022.7 52.596 1022.93 52.44C1023.17 52.284 1023.34 52.0717 1023.44 51.803H1025.21C1025.03 52.479 1024.67 53.0337 1024.14 53.467C1023.61 53.8917 1022.94 54.104 1022.11 54.104ZM1023.54 49.879C1023.53 49.333 1023.39 48.93 1023.13 48.67C1022.87 48.41 1022.53 48.28 1022.1 48.28C1021.65 48.28 1021.3 48.423 1021.04 48.709C1020.78 48.995 1020.64 49.385 1020.62 49.879H1023.54ZM1029.11 48.54V51.595C1029.11 51.8983 1029.12 52.1237 1029.15 52.271C1029.18 52.4183 1029.27 52.5353 1029.41 52.622C1029.55 52.7087 1029.77 52.752 1030.09 52.752C1030.27 52.752 1030.45 52.7347 1030.64 52.7V53.948C1030.55 53.9653 1030.38 53.987 1030.12 54.013C1029.88 54.039 1029.64 54.052 1029.41 54.052C1028.78 54.052 1028.3 53.961 1027.99 53.779C1027.69 53.5883 1027.5 53.3543 1027.42 53.077C1027.34 52.791 1027.3 52.427 1027.3 51.985V48.54H1026.16V47.136H1027.32V44.9H1029.11V47.136H1030.64V48.54H1029.11ZM1038.29 54.117C1037.57 54.117 1036.94 53.974 1036.41 53.688C1035.89 53.3933 1035.49 53.0163 1035.23 52.557C1034.96 52.0977 1034.82 51.6123 1034.82 51.101V51.023H1036.8V51.101C1036.8 51.3177 1036.85 51.5387 1036.95 51.764C1037.07 51.9807 1037.24 52.1627 1037.46 52.31C1037.7 52.4573 1037.98 52.531 1038.32 52.531C1038.74 52.531 1039.09 52.4227 1039.35 52.206C1039.62 51.9893 1039.75 51.699 1039.75 51.335C1039.75 51.023 1039.64 50.776 1039.41 50.594C1039.2 50.4033 1038.93 50.2777 1038.61 50.217L1037.5 49.983C1036.93 49.8703 1036.38 49.6277 1035.85 49.255C1035.32 48.8737 1035.06 48.254 1035.06 47.396C1035.06 46.8413 1035.19 46.3647 1035.46 45.966C1035.73 45.5587 1036.1 45.251 1036.58 45.043C1037.05 44.8263 1037.6 44.718 1038.2 44.718C1038.9 44.718 1039.49 44.8523 1039.98 45.121C1040.49 45.3897 1040.86 45.7363 1041.11 46.161C1041.37 46.5857 1041.5 47.0363 1041.5 47.513V47.565H1039.53V47.526C1039.53 47.214 1039.42 46.9237 1039.19 46.655C1038.97 46.3777 1038.62 46.239 1038.14 46.239C1037.74 46.239 1037.43 46.3473 1037.2 46.564C1036.98 46.772 1036.86 47.0407 1036.86 47.37C1036.86 47.682 1036.98 47.929 1037.2 48.111C1037.44 48.293 1037.72 48.4187 1038.06 48.488L1039.15 48.722C1039.82 48.8693 1040.4 49.1423 1040.89 49.541C1041.39 49.9397 1041.63 50.5247 1041.63 51.296C1041.63 51.8507 1041.49 52.3447 1041.21 52.778C1040.92 53.2027 1040.52 53.532 1040.01 53.766C1039.51 54 1038.94 54.117 1038.29 54.117ZM1045.42 48.54V51.595C1045.42 51.8983 1045.44 52.1237 1045.46 52.271C1045.5 52.4183 1045.58 52.5353 1045.72 52.622C1045.86 52.7087 1046.09 52.752 1046.4 52.752C1046.58 52.752 1046.77 52.7347 1046.96 52.7V53.948C1046.86 53.9653 1046.69 53.987 1046.44 54.013C1046.2 54.039 1045.96 54.052 1045.72 54.052C1045.09 54.052 1044.62 53.961 1044.31 53.779C1044 53.5883 1043.81 53.3543 1043.73 53.077C1043.66 52.791 1043.62 52.427 1043.62 51.985V48.54H1042.47V47.136H1043.63V44.9H1045.42V47.136H1046.96V48.54H1045.42ZM1050.75 54.104C1049.9 54.104 1049.24 53.779 1048.76 53.129C1048.29 52.479 1048.05 51.621 1048.05 50.555C1048.05 49.4717 1048.29 48.605 1048.76 47.955C1049.25 47.2963 1049.93 46.967 1050.79 46.967C1051.37 46.967 1051.83 47.1013 1052.16 47.37C1052.49 47.63 1052.72 47.9073 1052.86 48.202H1052.96V47.136H1054.77V54H1052.96V52.817H1052.86C1052.7 53.1377 1052.46 53.4323 1052.13 53.701C1051.8 53.9697 1051.34 54.104 1050.75 54.104ZM1051.42 52.648C1051.93 52.648 1052.31 52.44 1052.57 52.024C1052.83 51.608 1052.96 51.1097 1052.96 50.529C1052.96 49.9483 1052.83 49.4543 1052.57 49.047C1052.32 48.6397 1051.94 48.436 1051.42 48.436C1050.9 48.436 1050.51 48.6397 1050.26 49.047C1050.01 49.4543 1049.88 49.9483 1049.88 50.529C1049.88 51.1183 1050.01 51.621 1050.26 52.037C1050.51 52.4443 1050.9 52.648 1051.42 52.648ZM1056.4 47.136H1058.18V48.228H1058.27C1058.38 47.9247 1058.59 47.669 1058.89 47.461C1059.2 47.2443 1059.59 47.136 1060.06 47.136C1060.25 47.136 1060.4 47.1533 1060.53 47.188L1060.45 48.839C1060.24 48.7783 1060.01 48.748 1059.76 48.748C1059.23 48.748 1058.83 48.891 1058.57 49.177C1058.31 49.4543 1058.18 49.918 1058.18 50.568V54H1056.4V47.136ZM1063.95 48.54V51.595C1063.95 51.8983 1063.96 52.1237 1063.99 52.271C1064.02 52.4183 1064.11 52.5353 1064.25 52.622C1064.38 52.7087 1064.61 52.752 1064.92 52.752C1065.1 52.752 1065.29 52.7347 1065.48 52.7V53.948C1065.39 53.9653 1065.21 53.987 1064.96 54.013C1064.72 54.039 1064.48 54.052 1064.25 54.052C1063.61 54.052 1063.14 53.961 1062.83 53.779C1062.53 53.5883 1062.33 53.3543 1062.26 53.077C1062.18 52.791 1062.14 52.427 1062.14 51.985V48.54H1061V47.136H1062.15V44.9H1063.95V47.136H1065.48V48.54H1063.95ZM1069.91 54.104C1069.19 54.104 1068.59 53.9393 1068.09 53.61C1067.6 53.272 1067.23 52.8343 1066.99 52.297C1066.75 51.751 1066.64 51.166 1066.64 50.542C1066.64 49.918 1066.75 49.3373 1066.99 48.8C1067.23 48.254 1067.6 47.812 1068.09 47.474C1068.59 47.136 1069.2 46.967 1069.93 46.967C1070.89 46.967 1071.65 47.2747 1072.21 47.89C1072.79 48.5053 1073.07 49.3937 1073.07 50.555V51.049H1068.37V51.153C1068.37 51.569 1068.51 51.9287 1068.79 52.232C1069.08 52.5267 1069.44 52.674 1069.87 52.674C1070.21 52.674 1070.5 52.596 1070.73 52.44C1070.97 52.284 1071.13 52.0717 1071.24 51.803H1073.01C1072.82 52.479 1072.47 53.0337 1071.94 53.467C1071.41 53.8917 1070.74 54.104 1069.91 54.104ZM1071.34 49.879C1071.33 49.333 1071.19 48.93 1070.93 48.67C1070.67 48.41 1070.32 48.28 1069.9 48.28C1069.45 48.28 1069.09 48.423 1068.83 48.709C1068.57 48.995 1068.43 49.385 1068.42 49.879H1071.34ZM1076.83 54.104C1075.96 54.104 1075.29 53.779 1074.82 53.129C1074.35 52.479 1074.11 51.621 1074.11 50.555C1074.11 49.463 1074.35 48.592 1074.82 47.942C1075.29 47.292 1075.97 46.967 1076.84 46.967C1077.43 46.967 1077.89 47.1013 1078.22 47.37C1078.55 47.63 1078.79 47.9073 1078.92 48.202H1079.03V44.237H1080.83V54H1079.03V52.817H1078.92C1078.77 53.1377 1078.53 53.4323 1078.2 53.701C1077.87 53.9697 1077.41 54.104 1076.83 54.104ZM1077.48 52.674C1077.99 52.674 1078.38 52.466 1078.64 52.05C1078.9 51.634 1079.03 51.1357 1079.03 50.555C1079.03 49.983 1078.9 49.489 1078.64 49.073C1078.38 48.657 1077.99 48.449 1077.48 48.449C1076.96 48.449 1076.57 48.657 1076.31 49.073C1076.06 49.4803 1075.93 49.97 1075.93 50.542C1075.93 51.1313 1076.06 51.634 1076.31 52.05C1076.57 52.466 1076.96 52.674 1077.48 52.674Z" fill="#F3603C"/>
</g>
<defs>
<filter id="filter0_d_0_875" x="972" y="26" width="147" height="64" filterUnits="userSpaceOnUse" color-interpolation-filters="sRGB">
<feFlood flood-opacity="0" result="BackgroundImageFix"/>
<feColorMatrix in="SourceAlpha" type="matrix" values="0 0 0 0 0 0 0 0 0 0 0 0 0 0 0 0 0 0 127 0" result="hardAlpha"/>
<feMorphology radius="10" operator="erode" in="SourceAlpha" result="effect1_dropShadow_0_875"/>
<feOffset dy="15"/>
<feGaussianBlur stdDeviation="7.5"/>
<feColorMatrix type="matrix" values="0 0 0 0 0.859601 0 0 0 0 0.349119 0 0 0 0 0.264039 0 0 0 1 0"/>
<feBlend mode="normal" in2="BackgroundImageFix" result="effect1_dropShadow_0_875"/>
<feBlend mode="normal" in="SourceGraphic" in2="effect1_dropShadow_0_875" result="shape"/>
</filter>
<clipPath id="clip0_0_875">
<rect width="1114" height="96" fill="white"/>
</clipPath>
</defs>
</svg>
